<mxfile host="Electron" agent="Mozilla/5.0 (X11; Linux x86_64) AppleWebKit/537.36 (KHTML, like Gecko) draw.io/26.0.9 Chrome/128.0.6613.186 Electron/32.3.1 Safari/537.36" version="26.0.9">
  <diagram name="Page-1" id="e56a1550-8fbb-45ad-956c-1786394a9013">
    <mxGraphModel dx="1422" dy="855" grid="1" gridSize="10" guides="1" tooltips="1" connect="1" arrows="1" fold="1" page="1" pageScale="1" pageWidth="1100" pageHeight="850" background="none" math="0" shadow="0">
      <root>
        <mxCell id="0" />
        <mxCell id="1" parent="0" />
        <mxCell id="Ndg02h9WD8qBhF1uvVEC-3" value="" style="rounded=0;whiteSpace=wrap;html=1;fillColor=none;" parent="1" vertex="1">
          <mxGeometry x="770" y="80" width="290" height="380" as="geometry" />
        </mxCell>
        <mxCell id="Ndg02h9WD8qBhF1uvVEC-4" value="Model" style="text;html=1;align=center;verticalAlign=middle;resizable=0;points=[];autosize=1;strokeColor=none;fillColor=none;" parent="1" vertex="1">
          <mxGeometry x="885" y="50" width="60" height="30" as="geometry" />
        </mxCell>
        <mxCell id="Ndg02h9WD8qBhF1uvVEC-5" value="" style="rounded=0;whiteSpace=wrap;html=1;fillColor=none;" parent="1" vertex="1">
          <mxGeometry x="405" y="80" width="290" height="380" as="geometry" />
        </mxCell>
        <mxCell id="Ndg02h9WD8qBhF1uvVEC-6" value="core" style="text;html=1;align=center;verticalAlign=middle;resizable=0;points=[];autosize=1;strokeColor=none;fillColor=none;" parent="1" vertex="1">
          <mxGeometry x="525" y="50" width="50" height="30" as="geometry" />
        </mxCell>
        <mxCell id="Ndg02h9WD8qBhF1uvVEC-7" value="" style="rounded=0;whiteSpace=wrap;html=1;fillColor=none;" parent="1" vertex="1">
          <mxGeometry x="50" y="80" width="290" height="380" as="geometry" />
        </mxCell>
        <mxCell id="Ndg02h9WD8qBhF1uvVEC-8" value="ui" style="text;html=1;align=center;verticalAlign=middle;resizable=0;points=[];autosize=1;strokeColor=none;fillColor=none;" parent="1" vertex="1">
          <mxGeometry x="180" y="50" width="30" height="30" as="geometry" />
        </mxCell>
        <mxCell id="Ndg02h9WD8qBhF1uvVEC-9" value="Projects are stored as files in the file directory" style="text;html=1;align=center;verticalAlign=middle;resizable=0;points=[];autosize=1;strokeColor=none;fillColor=none;" parent="1" vertex="1">
          <mxGeometry x="770" y="480" width="270" height="30" as="geometry" />
        </mxCell>
        <mxCell id="Ndg02h9WD8qBhF1uvVEC-10" value="Interpreter" style="shape=cylinder3;whiteSpace=wrap;html=1;boundedLbl=1;backgroundOutline=1;size=15;" parent="1" vertex="1">
          <mxGeometry x="450" y="120" width="60" height="80" as="geometry" />
        </mxCell>
        <mxCell id="Ndg02h9WD8qBhF1uvVEC-11" value="Lua Engine" style="shape=cylinder3;whiteSpace=wrap;html=1;boundedLbl=1;backgroundOutline=1;size=15;" parent="1" vertex="1">
          <mxGeometry x="450" y="260" width="60" height="80" as="geometry" />
        </mxCell>
        <mxCell id="Ndg02h9WD8qBhF1uvVEC-14" value="Serialization Engine&lt;span style=&quot;color: rgba(0, 0, 0, 0); font-family: monospace; font-size: 0px; text-align: start; text-wrap: nowrap;&quot;&gt;%3CmxGraphModel%3E%3Croot%3E%3CmxCell%20id%3D%220%22%2F%3E%3CmxCell%20id%3D%221%22%20parent%3D%220%22%2F%3E%3CmxCell%20id%3D%222%22%20value%3D%22Scripting%20Engine%22%20style%3D%22shape%3Dcylinder3%3BwhiteSpace%3Dwrap%3Bhtml%3D1%3BboundedLbl%3D1%3BbackgroundOutline%3D1%3Bsize%3D15%3B%22%20vertex%3D%221%22%20parent%3D%221%22%3E%3CmxGeometry%20x%3D%22450%22%20y%3D%22260%22%20width%3D%2260%22%20height%3D%2280%22%20as%3D%22geometry%22%2F%3E%3C%2FmxCell%3E%3C%2Froot%3E%3C%2FmxGraphModel%3E&lt;/span&gt;" style="shape=cylinder3;whiteSpace=wrap;html=1;boundedLbl=1;backgroundOutline=1;size=15;" parent="1" vertex="1">
          <mxGeometry x="810" y="120" width="75" height="80" as="geometry" />
        </mxCell>
        <mxCell id="Ndg02h9WD8qBhF1uvVEC-15" value="Project Manager" style="shape=cylinder3;whiteSpace=wrap;html=1;boundedLbl=1;backgroundOutline=1;size=15;" parent="1" vertex="1">
          <mxGeometry x="575" y="120" width="60" height="80" as="geometry" />
        </mxCell>
        <mxCell id="Ndg02h9WD8qBhF1uvVEC-17" value="&lt;font color=&quot;#ba0000&quot;&gt;Interpreter is used for the execution of the whole game&lt;/font&gt;" style="whiteSpace=wrap;html=1;shape=mxgraph.basic.document;fillColor=#dae8fc;strokeColor=#6c8ebf;" parent="1" vertex="1">
          <mxGeometry x="400" y="500" width="100" height="100" as="geometry" />
        </mxCell>
        <mxCell id="Ndg02h9WD8qBhF1uvVEC-19" value="&lt;font color=&quot;#ba0000&quot;&gt;Project Manager stores all the characters, scripts, assets, and so on&lt;/font&gt;" style="whiteSpace=wrap;html=1;shape=mxgraph.basic.document;fillColor=#dae8fc;strokeColor=#6c8ebf;" parent="1" vertex="1">
          <mxGeometry x="520" y="500" width="100" height="100" as="geometry" />
        </mxCell>
        <mxCell id="Ndg02h9WD8qBhF1uvVEC-20" value="&lt;font color=&quot;#ba0000&quot;&gt;luaEngine is for bining the values from C++ to Lua, and exeuction of single blocks&lt;/font&gt;" style="whiteSpace=wrap;html=1;shape=mxgraph.basic.document;fillColor=#dae8fc;strokeColor=#6c8ebf;" parent="1" vertex="1">
          <mxGeometry x="400" y="620" width="100" height="100" as="geometry" />
        </mxCell>
        <mxCell id="Ndg02h9WD8qBhF1uvVEC-21" value="&lt;font color=&quot;#ba0000&quot;&gt;Serialization Engine is for saving and loading the project from the filesystem&lt;/font&gt;" style="whiteSpace=wrap;html=1;shape=mxgraph.basic.document;fillColor=#dae8fc;strokeColor=#6c8ebf;" parent="1" vertex="1">
          <mxGeometry x="770" y="530" width="100" height="120" as="geometry" />
        </mxCell>
        <mxCell id="Ndg02h9WD8qBhF1uvVEC-22" value="Block Editor" style="shape=cylinder3;whiteSpace=wrap;html=1;boundedLbl=1;backgroundOutline=1;size=15;" parent="1" vertex="1">
          <mxGeometry x="80" y="110" width="60" height="80" as="geometry" />
        </mxCell>
        <mxCell id="Ndg02h9WD8qBhF1uvVEC-23" value="Stage/Game" style="shape=cylinder3;whiteSpace=wrap;html=1;boundedLbl=1;backgroundOutline=1;size=15;" parent="1" vertex="1">
          <mxGeometry x="80" y="220" width="90" height="80" as="geometry" />
        </mxCell>
        <mxCell id="Ndg02h9WD8qBhF1uvVEC-24" value="Sprite Manager" style="shape=cylinder3;whiteSpace=wrap;html=1;boundedLbl=1;backgroundOutline=1;size=15;" parent="1" vertex="1">
          <mxGeometry x="80" y="320" width="90" height="80" as="geometry" />
        </mxCell>
        <mxCell id="Ndg02h9WD8qBhF1uvVEC-25" value="Asset Manager" style="shape=cylinder3;whiteSpace=wrap;html=1;boundedLbl=1;backgroundOutline=1;size=15;" parent="1" vertex="1">
          <mxGeometry x="210" y="320" width="90" height="80" as="geometry" />
        </mxCell>
      </root>
    </mxGraphModel>
  </diagram>
</mxfile>
